<mxfile host="Electron" agent="Mozilla/5.0 (Windows NT 10.0; Win64; x64) AppleWebKit/537.36 (KHTML, like Gecko) draw.io/24.7.17 Chrome/128.0.6613.36 Electron/32.0.1 Safari/537.36" version="24.7.17">
  <diagram name="Page-1" id="NL7NHzDc0nzGugyhl3Q5">
    <mxGraphModel dx="478" dy="295" grid="1" gridSize="10" guides="1" tooltips="1" connect="1" arrows="1" fold="1" page="1" pageScale="1" pageWidth="827" pageHeight="1169" math="1" shadow="0">
      <root>
        <mxCell id="0" />
        <mxCell id="1" parent="0" />
        <mxCell id="upEFsOhWAE27hWcri2FI-1" value="" style="rounded=0;whiteSpace=wrap;html=1;rotation=-75;" parent="1" vertex="1">
          <mxGeometry x="199.99999999999997" y="365" width="220" height="13.3" as="geometry" />
        </mxCell>
        <mxCell id="upEFsOhWAE27hWcri2FI-2" value="" style="rounded=0;whiteSpace=wrap;html=1;rotation=14;" parent="1" vertex="1">
          <mxGeometry x="354.98" y="257.91" width="87" height="13.3" as="geometry" />
        </mxCell>
        <mxCell id="upEFsOhWAE27hWcri2FI-4" value="" style="ellipse;whiteSpace=wrap;html=1;aspect=fixed;" parent="1" vertex="1">
          <mxGeometry x="322" y="230" width="40" height="40" as="geometry" />
        </mxCell>
        <mxCell id="upEFsOhWAE27hWcri2FI-5" value="" style="ellipse;whiteSpace=wrap;html=1;aspect=fixed;" parent="1" vertex="1">
          <mxGeometry x="297" y="349" width="30" height="30" as="geometry" />
        </mxCell>
        <mxCell id="upEFsOhWAE27hWcri2FI-7" value="" style="endArrow=none;html=1;rounded=0;dashed=1;" parent="1" edge="1">
          <mxGeometry width="50" height="50" relative="1" as="geometry">
            <mxPoint x="288" y="480" as="sourcePoint" />
            <mxPoint x="443" y="480" as="targetPoint" />
          </mxGeometry>
        </mxCell>
        <mxCell id="upEFsOhWAE27hWcri2FI-9" value="" style="ellipse;whiteSpace=wrap;html=1;aspect=fixed;" parent="1" vertex="1">
          <mxGeometry x="425" y="259" width="30" height="30" as="geometry" />
        </mxCell>
        <mxCell id="upEFsOhWAE27hWcri2FI-6" value="" style="endArrow=none;dashed=1;html=1;rounded=0;dashPattern=1 4;strokeColor=#808080;" parent="1" edge="1">
          <mxGeometry width="50" height="50" relative="1" as="geometry">
            <mxPoint x="375" y="527" as="sourcePoint" />
            <mxPoint x="466" y="178" as="targetPoint" />
          </mxGeometry>
        </mxCell>
        <mxCell id="upEFsOhWAE27hWcri2FI-8" value="" style="endArrow=none;html=1;rounded=0;dashed=1;" parent="1" edge="1">
          <mxGeometry width="50" height="50" relative="1" as="geometry">
            <mxPoint x="441" y="480" as="sourcePoint" />
            <mxPoint x="441" y="274" as="targetPoint" />
          </mxGeometry>
        </mxCell>
        <mxCell id="upEFsOhWAE27hWcri2FI-13" value="\(x\)" style="text;html=1;align=center;verticalAlign=middle;whiteSpace=wrap;rounded=0;" parent="1" vertex="1">
          <mxGeometry x="333" y="472" width="60" height="30" as="geometry" />
        </mxCell>
        <mxCell id="upEFsOhWAE27hWcri2FI-14" value="\(z\)" style="text;html=1;align=center;verticalAlign=middle;whiteSpace=wrap;rounded=0;" parent="1" vertex="1">
          <mxGeometry x="425" y="378.3" width="60" height="30" as="geometry" />
        </mxCell>
        <mxCell id="upEFsOhWAE27hWcri2FI-16" value="" style="endArrow=none;html=1;rounded=0;strokeColor=#FF0000;curved=1;fontColor=#FF0000;" parent="1" edge="1">
          <mxGeometry width="50" height="50" relative="1" as="geometry">
            <mxPoint x="421" y="351" as="sourcePoint" />
            <mxPoint x="441" y="357" as="targetPoint" />
            <Array as="points">
              <mxPoint x="424" y="365" />
            </Array>
          </mxGeometry>
        </mxCell>
        <mxCell id="upEFsOhWAE27hWcri2FI-17" value="\(\theta_h\)" style="text;html=1;align=center;verticalAlign=middle;whiteSpace=wrap;rounded=0;fontColor=#FF0000;" parent="1" vertex="1">
          <mxGeometry x="403" y="330" width="60" height="30" as="geometry" />
        </mxCell>
        <mxCell id="upEFsOhWAE27hWcri2FI-19" value="" style="shape=crossbar;whiteSpace=wrap;html=1;rounded=1;direction=south;fontFamily=Helvetica;fontSize=11;fontColor=default;labelBackgroundColor=default;rotation=-75.6;" parent="1" vertex="1">
          <mxGeometry x="389.8" y="180.14" width="20" height="101" as="geometry" />
        </mxCell>
        <mxCell id="upEFsOhWAE27hWcri2FI-20" value="\(SL\)" style="text;html=1;align=center;verticalAlign=middle;whiteSpace=wrap;rounded=0;rotation=15;" parent="1" vertex="1">
          <mxGeometry x="374" y="206" width="60" height="30" as="geometry" />
        </mxCell>
        <mxCell id="upEFsOhWAE27hWcri2FI-22" value="" style="shape=crossbar;whiteSpace=wrap;html=1;rounded=1;direction=south;fontFamily=Helvetica;fontSize=11;fontColor=#FF8000;labelBackgroundColor=default;rotation=-165;strokeColor=#FF8000;" parent="1" vertex="1">
          <mxGeometry x="266.66" y="235.72" width="20" height="235" as="geometry" />
        </mxCell>
        <mxCell id="upEFsOhWAE27hWcri2FI-23" value="\(r_0\)" style="text;html=1;align=center;verticalAlign=middle;whiteSpace=wrap;rounded=0;rotation=-75;fontColor=#FF8000;" parent="1" vertex="1">
          <mxGeometry x="237" y="310" width="60" height="30" as="geometry" />
        </mxCell>
        <mxCell id="upEFsOhWAE27hWcri2FI-24" value="" style="endArrow=none;html=1;rounded=0;dashed=1;" parent="1" edge="1">
          <mxGeometry width="50" height="50" relative="1" as="geometry">
            <mxPoint x="288" y="479" as="sourcePoint" />
            <mxPoint x="441" y="274" as="targetPoint" />
          </mxGeometry>
        </mxCell>
        <mxCell id="upEFsOhWAE27hWcri2FI-25" value="\(h\)" style="text;html=1;align=center;verticalAlign=middle;whiteSpace=wrap;rounded=0;rotation=-51.5;" parent="1" vertex="1">
          <mxGeometry x="333" y="338.22" width="60" height="30" as="geometry" />
        </mxCell>
        <mxCell id="upEFsOhWAE27hWcri2FI-28" value="" style="endArrow=none;html=1;rounded=0;strokeColor=default;align=center;verticalAlign=middle;fontFamily=Helvetica;fontSize=11;fontColor=default;labelBackgroundColor=default;curved=1;exitX=0.364;exitY=1.017;exitDx=0;exitDy=0;exitPerimeter=0;" parent="1" source="upEFsOhWAE27hWcri2FI-25" edge="1">
          <mxGeometry width="50" height="50" relative="1" as="geometry">
            <mxPoint x="378" y="358" as="sourcePoint" />
            <mxPoint x="440" y="400" as="targetPoint" />
            <Array as="points">
              <mxPoint x="390" y="410" />
            </Array>
          </mxGeometry>
        </mxCell>
        <mxCell id="upEFsOhWAE27hWcri2FI-29" value="\(\phi\)" style="text;html=1;align=center;verticalAlign=middle;whiteSpace=wrap;rounded=0;" parent="1" vertex="1">
          <mxGeometry x="343" y="379" width="60" height="30" as="geometry" />
        </mxCell>
        <mxCell id="upEFsOhWAE27hWcri2FI-30" value="" style="endArrow=none;html=1;rounded=0;strokeColor=default;align=center;verticalAlign=middle;fontFamily=Helvetica;fontSize=11;fontColor=default;labelBackgroundColor=default;curved=1;" parent="1" edge="1">
          <mxGeometry width="50" height="50" relative="1" as="geometry">
            <mxPoint x="304" y="457" as="sourcePoint" />
            <mxPoint x="315" y="480" as="targetPoint" />
            <Array as="points">
              <mxPoint x="320" y="460" />
            </Array>
          </mxGeometry>
        </mxCell>
        <mxCell id="upEFsOhWAE27hWcri2FI-31" value="\(\alpha_4\)" style="text;html=1;align=center;verticalAlign=middle;whiteSpace=wrap;rounded=0;" parent="1" vertex="1">
          <mxGeometry x="295" y="442" width="60" height="30" as="geometry" />
        </mxCell>
        <mxCell id="upEFsOhWAE27hWcri2FI-32" value="" style="endArrow=none;dashed=1;html=1;rounded=0;dashPattern=1 4;strokeColor=#666666;" parent="1" edge="1">
          <mxGeometry width="50" height="50" relative="1" as="geometry">
            <mxPoint x="271" y="230" as="sourcePoint" />
            <mxPoint x="507" y="290" as="targetPoint" />
          </mxGeometry>
        </mxCell>
        <mxCell id="upEFsOhWAE27hWcri2FI-33" value="" style="endArrow=none;html=1;rounded=0;strokeColor=default;align=center;verticalAlign=middle;fontFamily=Helvetica;fontSize=11;fontColor=default;labelBackgroundColor=default;curved=1;" parent="1" edge="1">
          <mxGeometry width="50" height="50" relative="1" as="geometry">
            <mxPoint x="399" y="264" as="sourcePoint" />
            <mxPoint x="419" y="303" as="targetPoint" />
            <Array as="points">
              <mxPoint x="390" y="290" />
            </Array>
          </mxGeometry>
        </mxCell>
        <mxCell id="upEFsOhWAE27hWcri2FI-34" value="\(\alpha_2\)" style="text;html=1;align=center;verticalAlign=middle;whiteSpace=wrap;rounded=0;" parent="1" vertex="1">
          <mxGeometry x="362" y="281.14" width="60" height="30" as="geometry" />
        </mxCell>
        <mxCell id="upEFsOhWAE27hWcri2FI-35" value="" style="endArrow=none;html=1;rounded=0;strokeColor=default;align=center;verticalAlign=middle;fontFamily=Helvetica;fontSize=11;fontColor=default;labelBackgroundColor=default;curved=1;" parent="1" edge="1">
          <mxGeometry width="50" height="50" relative="1" as="geometry">
            <mxPoint x="305" y="416" as="sourcePoint" />
            <mxPoint x="325" y="429" as="targetPoint" />
            <Array as="points">
              <mxPoint x="320" y="410" />
            </Array>
          </mxGeometry>
        </mxCell>
        <mxCell id="upEFsOhWAE27hWcri2FI-36" value="\(\alpha_3\)" style="text;html=1;align=center;verticalAlign=middle;whiteSpace=wrap;rounded=0;" parent="1" vertex="1">
          <mxGeometry x="294.98" y="390" width="60" height="30" as="geometry" />
        </mxCell>
        <mxCell id="upEFsOhWAE27hWcri2FI-37" value="" style="endArrow=none;html=1;rounded=0;strokeColor=default;align=center;verticalAlign=middle;fontFamily=Helvetica;fontSize=11;fontColor=default;labelBackgroundColor=default;curved=1;" parent="1" edge="1">
          <mxGeometry width="50" height="50" relative="1" as="geometry">
            <mxPoint x="395" y="335" as="sourcePoint" />
            <mxPoint x="422" y="346" as="targetPoint" />
            <Array as="points">
              <mxPoint x="402" y="355" />
            </Array>
          </mxGeometry>
        </mxCell>
        <mxCell id="upEFsOhWAE27hWcri2FI-38" value="\(\alpha_1\)" style="text;html=1;align=center;verticalAlign=middle;whiteSpace=wrap;rounded=0;" parent="1" vertex="1">
          <mxGeometry x="368.48" y="338.22" width="60" height="30" as="geometry" />
        </mxCell>
      </root>
    </mxGraphModel>
  </diagram>
</mxfile>
